:SAMPLES-PER-SECOND 30
:FULLY-SPECIFIED
:DEGREES
290
root  48.7355 38.3456 0.349084 173.674 -2.43425 174.99
RightUpLeg  -1.11752 -4.0589 -20.4159
RightLeg  33.4262 -4.75638 -3.64171
RightFoot  -8.78704 -0.0644464 0.202002
RightToes  4.01633e-009 0 -3.6325e-017
Spine  6.61398 -1.43493 -5.00964
Spine1  13.8109 -2.26769 -1.26019
HEad  -4.87677 32.9869 -17.0151
LeftShoulder1  0.295136 2.64134 -28.0703
LeftArm  -3.83864 -6.34407 -39.6763
LeftForeArm  11.9849 -1.19801 -8.91401
LeftHand  0.0457897 7.17432 5.12599
RightShoulder  -0.565945 -5.17436 27.1149
RightArm  12.6695 -9.62062 48.4043
RightForeArm  -14.8251 15.5118 6.06682
RightHand  -0.990334 4.32884 -12.0817
LeftUpLeg  -3.77244 9.96824 -7.15012
LeftLeg  19.0372 32.3504 4.84248
LeftFoot  -9.34745 -0.0695916 7.23039
LeftToes  -1.95724e-009 9.62483e-011 3.51777e-011
291
root  48.1489 38.3366 -0.0792923 173.895 -6.96094 175.535
RightUpLeg  -4.31228 2.36492 -17.2203
RightLeg  38.4011 -4.05725 -3.70766
RightFoot  -9.51733 -0.0663231 0.112007
RightToes  4.01633e-009 0 -3.6325e-017
Spine  6.6128 -1.25869 -5.41291
Spine1  13.7436 -2.52219 -0.201746
HEad  -6.18092 36.3612 -18.6249
LeftShoulder1  0.304503 2.60053 -27.5483
LeftArm  -2.98479 -6.14364 -39.1719
LeftForeArm  12.6363 -1.72888 -9.4893
LeftHand  0.0768532 7.41831 6.48131
RightShoulder  -0.560827 -5.18646 26.5649
RightArm  17.9249 -7.53982 47.8539
RightForeArm  -9.49197 19.4105 5.58492
RightHand  -0.907767 3.45197 -12.127
LeftUpLeg  -2.75156 7.98009 -8.0703
LeftLeg  18.1132 30.1275 4.11201
LeftFoot  -10.2813 -0.0055515 7.30646
LeftToes  -1.95724e-009 9.62483e-011 3.51777e-011
292
root  47.5251 38.3787 -0.52354 174.315 -12.4791 176.291
RightUpLeg  -7.60847 7.57548 -14.1184
RightLeg  42.3733 -3.21162 -3.41059
RightFoot  -9.66624 -0.0638873 -0.105843
RightToes  4.01633e-009 0 -3.6325e-017
Spine  6.92273 -1.5481 -5.6096
Spine1  12.8071 -3.2592 1.31941
HEad  -8.53574 38.704 -20.0147
LeftShoulder1  0.304079 2.58648 -26.9734
LeftArm  -3.25273 -5.5113 -39.3479
LeftForeArm  13.7511 -2.99567 -9.32203
LeftHand  0.0465806 7.70272 4.38007
RightShoulder  -0.563223 -5.22088 26.0375
RightArm  19.6369 -6.34763 46.5216
RightForeArm  -5.09448 23.6106 5.28679
RightHand  -1.01909 3.96956 -12.8466
LeftUpLeg  -1.53295 6.55697 -8.88966
LeftLeg  16.4609 26.3909 3.1112
LeftFoot  -10.9611 0.0403629 7.72712
LeftToes  -1.95724e-009 9.62483e-011 3.51777e-011
293
root  46.9627 38.4031 -0.974276 174.28 -18.831 177.182
RightUpLeg  -10.6393 11.209 -11.3044
RightLeg  44.901 -1.82329 -2.24947
RightFoot  -9.59788 -0.0634243 -0.106374
RightToes  4.01633e-009 0 -3.6325e-017
Spine  7.40124 -1.97597 -6.4828
Spine1  12.5676 -4.42775 3.47363
HEad  -11.687 39.6153 -20.4508
LeftShoulder1  0.323607 2.52612 -26.9162
LeftArm  -3.62452 -5.8502 -39.8459
LeftForeArm  12.2108 -3.88744 -9.12085
LeftHand  0.0247376 6.31408 6.21777
RightShoulder  -0.564806 -5.25189 25.5502
RightArm  18.5762 -5.125 44.8645
RightForeArm  -3.53355 27.1651 6.0308
RightHand  -1.12555 4.28705 -13.7174
LeftUpLeg  -0.0233621 6.2271 -9.03799
LeftLeg  15.5553 20.7615 1.98081
LeftFoot  -11.759 0.100313 8.10616
LeftToes  -1.95724e-009 9.62483e-011 3.51777e-011
294
root  46.3471 38.415 -1.4702 174.121 -25.0036 177.752
RightUpLeg  -13.4892 12.8365 -9.72625
RightLeg  45.2515 -0.604392 -0.964043
RightFoot  -9.58261 -0.0675065 0.170805
RightToes  4.01633e-009 0 -3.6325e-017
Spine  7.8553 -2.24913 -7.10009
Spine1  12.4041 -5.19527 5.05409
HEad  -13.0855 38.0215 -20.5445
LeftShoulder1  0.382466 2.3515 -27.0382
LeftArm  -3.62062 -6.48597 -40.4147
LeftForeArm  13.4078 -5.09061 -9.09528
LeftHand  -0.00399095 6.0692 4.14987
RightShoulder  -0.598582 -5.36794 25.3737
RightArm  17.534 -4.35661 42.8425
RightForeArm  -4.08683 30.1115 6.78712
RightHand  -1.06502 4.2751 -13.0245
LeftUpLeg  1.94994 5.88131 -9.3606
LeftLeg  14.4924 15.3779 1.05971
LeftFoot  -12.3085 0.149029 8.80125
LeftToes  -1.95724e-009 9.62483e-011 3.51777e-011
295
root  45.7124 38.4084 -1.99603 173.864 -31.2129 178.276
RightUpLeg  -15.9638 12.9634 -8.64361
RightLeg  43.4432 -0.651448 -0.941505
RightFoot  -9.69841 -0.0740136 0.579014
RightToes  4.01633e-009 0 -3.6325e-017
Spine  8.31175 -2.57678 -7.46891
Spine1  12.3541 -5.84827 6.29362
HEad  -14.2577 36.8811 -20.3008
LeftShoulder1  0.474704 2.06544 -26.8253
LeftArm  -3.57638 -6.99628 -41.5775
LeftForeArm  14.4158 -6.35299 -9.00876
LeftHand  -0.0177397 5.62632 4.09996
RightShoulder  -0.606571 -5.39978 25.2541
RightArm  16.2497 -4.01118 41.1391
RightForeArm  -4.76708 32.1324 7.34445
RightHand  -1.11461 5.09155 -12.5888
LeftUpLeg  4.33944 5.78757 -9.33283
LeftLeg  13.1179 9.61712 -0.0212235
LeftFoot  -13.0176 0.221162 9.75248
LeftToes  -1.95724e-009 9.62483e-011 3.51777e-011
296
root  45.027 38.3957 -2.54316 173.32 -36.8022 178.674
RightUpLeg  -17.6077 12.4957 -7.90029
RightLeg  39.3593 -1.49423 -1.58121
RightFoot  -9.76436 -0.0770583 0.792229
RightToes  4.01633e-009 0 -3.6325e-017
Spine  9.30011 -2.77343 -7.32513
Spine1  11.8518 -6.11504 6.83983
HEad  -15.2532 35.8924 -19.3541
LeftShoulder1  0.474668 2.07499 -27.055
LeftArm  -2.84005 -7.16168 -42.4614
LeftForeArm  15.9075 -8.35459 -8.94192
LeftHand  -0.0548554 4.37039 3.97783
RightShoulder  -0.559858 -5.27402 24.8604
RightArm  14.8998 -3.93455 40.5055
RightForeArm  -5.59826 32.1274 7.39002
RightHand  -1.04817 4.91076 -12.0616
LeftUpLeg  6.97897 5.73609 -9.20921
LeftLeg  12.2082 4.52461 -0.619164
LeftFoot  -13.7838 0.301739 10.2265
LeftToes  -1.95724e-009 9.62483e-011 3.51777e-011
297
root  44.259 38.3445 -3.15053 172.95 -41.207 179.148
RightUpLeg  -18.9536 11.5697 -7.18506
RightLeg  33.1638 -2.00851 -1.65396
RightFoot  -9.49086 -0.0777043 0.838442
RightToes  4.01633e-009 0 -3.6325e-017
Spine  9.05458 -2.66677 -6.40472
Spine1  12.4407 -5.71214 6.37154
HEad  -15.2175 34.4193 -18.1787
LeftShoulder1  0.444189 2.16384 -26.9814
LeftArm  -0.628815 -8.19935 -43.4577
LeftForeArm  16.5111 -9.35577 -9.24729
LeftHand  -0.0595743 3.87694 3.12626
RightShoulder  -0.569333 -5.29678 24.9934
RightArm  14.0686 -3.64574 39.9977
RightForeArm  -5.42807 31.066 7.10324
RightHand  -0.985761 4.73047 -11.5621
LeftUpLeg  9.29857 5.84732 -8.86911
LeftLeg  11.6636 0.396437 -1.00707
LeftFoot  -14.4178 0.389179 11.2051
LeftToes  -1.95724e-009 9.62483e-011 3.51777e-011
298
root  43.4188 38.2603 -3.76409 172.453 -45.034 179.701
RightUpLeg  -19.4932 9.62476 -6.21236
RightLeg  25.2793 -2.42223 -1.43597
RightFoot  -8.73612 -0.0892165 1.29677
RightToes  4.01633e-009 0 -3.6325e-017
Spine  9.37238 -2.71038 -5.06717
Spine1  12.1937 -5.30886 5.6342
HEad  -13.8534 32.9137 -16.9678
LeftShoulder1  0.447836 2.16186 -27.2088
LeftArm  3.20351 -7.36712 -43.8226
LeftForeArm  16.185 -11.9799 -8.99499
LeftHand  -0.059809 3.44932 2.53448
RightShoulder  -0.528886 -5.1684 24.9788
RightArm  14.5357 -3.19607 40.0179
RightForeArm  -6.02526 29.0484 6.6215
RightHand  -0.970125 4.82799 -11.2932
LeftUpLeg  11.6557 5.97461 -8.3721
LeftLeg  11.3079 -3.30987 -1.28239
LeftFoot  -15.0205 0.49652 12.5904
LeftToes  -1.95724e-009 9.62483e-011 3.51777e-011
299
root  42.5 38.1325 -4.40244 172.182 -48.0512 179.99
RightUpLeg  -19.3828 4.95119 -4.53277
RightLeg  16.6836 -1.91501 -1.02633
RightFoot  -7.70352 -0.144413 2.88678
RightToes  4.01633e-009 0 -3.6325e-017
Spine  9.44422 -2.57131 -3.79163
Spine1  12.1329 -4.70893 4.85607
HEad  -13.5328 32.0525 -16.6234
LeftShoulder1  0.480149 2.07919 -27.5528
LeftArm  8.03726 -6.02166 -43.8265
LeftForeArm  15.2225 -14.584 -8.35714
LeftHand  -0.0850712 2.55911 3.01914
RightShoulder  -0.498101 -5.07045 24.9703
RightArm  15.7897 -2.67389 40.2583
RightForeArm  -7.52176 26.8462 6.16236
RightHand  -0.956318 4.12103 -11.9083
LeftUpLeg  14.0068 6.12016 -7.99571
LeftLeg  10.9334 -6.03757 -1.49269
LeftFoot  -15.7802 0.622329 13.5192
LeftToes  -1.95724e-009 9.62483e-011 3.51777e-011
300
root  41.5156 37.9405 -5.13132 171.676 -50.9243 -179.697
RightUpLeg  -18.2855 -2.23665 -1.82775
RightLeg  8.59411 0.0559726 -0.390309
RightFoot  -6.90174 -0.272591 5.77816
RightToes  4.01633e-009 0 -3.6325e-017
Spine  9.43713 -2.41105 -2.97836
Spine1  12.3858 -4.31708 4.47521
HEad  -12.9757 30.8685 -16.1154
LeftShoulder1  0.48175 2.07528 -27.5913
LeftArm  11.6384 -4.22593 -44.1091
LeftForeArm  14.4545 -16.4756 -7.55821
LeftHand  -0.0749037 3.087 3.04141
RightShoulder  -0.482142 -5.02456 24.8642
RightArm  17.5012 -2.14754 40.7863
RightForeArm  -8.93289 24.5465 5.7013
RightHand  -0.90609 4.50089 -10.8867
LeftUpLeg  16.5794 6.36846 -7.38737
LeftLeg  10.9581 -8.51133 -1.53088
LeftFoot  -16.7494 0.785448 14.4167
LeftToes  -1.95724e-009 9.62483e-011 3.51777e-011
301
root  40.4721 37.703 -5.90967 172.022 -53.4342 -179.815
RightUpLeg  -18.0738 -3.72045 -0.862677
RightLeg  3.99746 -1.82238 0.20365
RightFoot  -5.91881 -0.387714 7.31466
RightToes  4.01633e-009 0 -3.6325e-017
Spine  8.82869 -2.3631 -2.78475
Spine1  12.8162 -4.19643 4.45117
HEad  -13.0062 29.7328 -15.9765
LeftShoulder1  0.334664 2.51614 -27.7243
LeftArm  13.3824 -2.56856 -44.006
LeftForeArm  14.2508 -16.9027 -7.43862
LeftHand  -0.0888878 2.36275 2.96758
RightShoulder  -0.467337 -4.9682 25.0276
RightArm  18.8241 -1.32816 41.6206
RightForeArm  -9.33748 22.4127 5.35314
RightHand  -0.881298 3.75065 -11.4163
LeftUpLeg  18.3955 6.34538 -7.01648
LeftLeg  11.5963 -10.5697 -1.67724
LeftFoot  -17.9654 0.952719 14.5052
LeftToes  -1.95724e-009 9.62483e-011 3.51777e-011
